<?xml version="1.0" encoding="UTF-8"?>
<svg version="1.1" xmlns="http://www.w3.org/2000/svg" width="860" height="252">
<path d="M0 0 C283.8 0 567.6 0 860 0 C860 83.16 860 166.32 860 252 C576.2 252 292.4 252 0 252 C0 168.84 0 85.68 0 0 Z " fill="#B1F9A7" transform="translate(0,0)"/>
<path d="M0 0 C283.8 0 567.6 0 860 0 C860 83.16 860 166.32 860 252 C576.2 252 292.4 252 0 252 C0 168.84 0 85.68 0 0 Z M24 14 C24 87.92 24 161.84 24 238 C294.27 238 564.54 238 843 238 C843 164.08 843 90.16 843 14 C572.73 14 302.46 14 24 14 Z " fill="#F4F5F4" transform="translate(0,0)"/>
<path d="M0 0 C1.58206057 0.00667536 3.16410534 0.0186375 4.74609375 0.03515625 C5.55240234 0.03966797 6.35871094 0.04417969 7.18945312 0.04882812 C9.18753131 0.06065107 11.18557158 0.07858711 13.18359375 0.09765625 C27.83963128 39.70151407 27.83963128 39.70151407 34.86328125 58.83203125 C35.24335327 59.86721893 35.62342529 60.90240662 36.01501465 61.96896362 C37.90827302 67.12672652 39.80007924 72.28501831 41.69042969 77.44384766 C45.16351904 86.91636728 48.65399392 96.38136192 52.20703125 105.82421875 C52.82521087 107.47110419 53.44337541 109.11799528 54.06152344 110.76489258 C55.19287893 113.77797886 56.3326475 116.78768942 57.47753906 119.7956543 C57.97620892 121.12147019 58.47459972 122.44739109 58.97265625 123.7734375 C59.40271973 124.90692627 59.8327832 126.04041504 60.27587891 127.20825195 C61.18359375 130.09765625 61.18359375 130.09765625 61.18359375 134.09765625 C55.90359375 134.09765625 50.62359375 134.09765625 45.18359375 134.09765625 C40.11178851 121.92532367 35.6501836 109.50485029 31.18359375 97.09765625 C13.36359375 96.76765625 -4.45640625 96.43765625 -22.81640625 96.09765625 C-23.80640625 99.39765625 -24.79640625 102.69765625 -25.81640625 106.09765625 C-26.62278127 108.4718871 -27.44794955 110.83986749 -28.296875 113.19921875 C-28.73837891 114.43027344 -29.17988281 115.66132813 -29.63476562 116.9296875 C-30.09108855 118.19403109 -30.54746943 119.45835377 -31.00390625 120.72265625 C-31.47224406 122.02595586 -31.94034462 123.32934075 -32.40820312 124.6328125 C-33.54194758 127.78859603 -34.67885407 130.94324327 -35.81640625 134.09765625 C-41.42640625 134.09765625 -47.03640625 134.09765625 -52.81640625 134.09765625 C-52.17048163 130.86803316 -51.62834041 128.3037303 -50.51293945 125.31152344 C-50.25209061 124.60598328 -49.99124176 123.90044312 -49.7224884 123.17352295 C-49.44023911 122.42145569 -49.15798981 121.66938843 -48.8671875 120.89453125 C-48.57208786 120.09847473 -48.27698822 119.30241821 -47.97294617 118.48223877 C-47.02844702 115.93605581 -46.07896318 113.39177006 -45.12890625 110.84765625 C-43.89391578 107.53065857 -42.66113255 104.21284671 -41.4296875 100.89453125 C-41.12298126 100.0686853 -40.81627502 99.24283936 -40.50027466 98.39196777 C-38.55105199 93.12789589 -36.65272313 87.8484391 -34.796875 82.55078125 C-31.57649567 73.36009609 -28.20768839 64.22646229 -24.81640625 55.09765625 C-24.49206604 54.22447754 -24.16772583 53.35129883 -23.83355713 52.45166016 C-21.08339825 45.05122051 -18.32676592 37.65319492 -15.56958008 30.25537109 C-14.53300902 27.47376561 -13.4969248 24.6919792 -12.4609375 21.91015625 C-11.97247849 20.59990479 -11.97247849 20.59990479 -11.47415161 19.26318359 C-9.4445727 13.81162117 -7.44928974 8.34932033 -5.5144043 2.86328125 C-4.2095279 -0.43747639 -3.97474661 0.10170795 0 0 Z " fill="#E64F47" transform="translate(613.81640625,59.90234375)"/>
<path d="M0 0 C5.94 0 11.88 0 18 0 C18.58676514 1.6099585 19.17353027 3.21991699 19.77807617 4.87866211 C22.58001419 12.56538043 25.38332412 20.25159782 28.1875 27.9375 C28.44328953 28.6385939 28.69907906 29.33968781 28.96261978 30.06202698 C37.71271838 54.04341891 46.50951186 78.00725854 55.34643555 101.95678711 C55.76558228 103.09282883 56.184729 104.22887054 56.61657715 105.39933777 C57.38824353 107.49044406 58.16018847 109.5814476 58.93249512 111.6723175 C59.6183888 113.53040445 60.30269589 115.38907805 60.98519897 117.24841309 C61.69843581 119.1823224 62.42008057 121.11314146 63.14785767 123.04162598 C63.51519012 124.02465698 63.88252258 125.00768799 64.26098633 126.02050781 C64.59455643 126.904422 64.92812653 127.78833618 65.27180481 128.69903564 C66 131 66 131 66 134 C60.39 134 54.78 134 49 134 C44.71 121.79 40.42 109.58 36 97 C18.18 97 0.36 97 -18 97 C-20.660625 104.486875 -20.660625 104.486875 -23.375 112.125 C-24.209104 114.47069092 -24.209104 114.47069092 -25.06005859 116.86376953 C-25.50172363 118.10755371 -25.94338867 119.35133789 -26.3984375 120.6328125 C-26.62571533 121.2714624 -26.85299316 121.9101123 -27.0871582 122.56811523 C-28.43506321 126.36649109 -29.72512222 130.17536667 -31 134 C-36.61 134 -42.22 134 -48 134 C-47.22696087 129.36176519 -46.35195445 125.84495169 -44.7421875 121.51953125 C-44.51604767 120.90720139 -44.28990784 120.29487152 -44.05691528 119.66398621 C-43.33460017 117.7115965 -42.6050097 115.76202392 -41.875 113.8125 C-41.40835898 112.55552226 -40.94220997 111.29836176 -40.4765625 110.04101562 C-39.5074221 107.42610061 -38.53525676 104.81233574 -37.5612793 102.19921875 C-35.90772224 97.75832293 -34.27208725 93.31090017 -32.63671875 88.86328125 C-30.11696757 82.01456012 -27.57867374 75.17295576 -25.02734375 68.3359375 C-24.69200623 67.43693222 -24.3566687 66.53792694 -24.01116943 65.61167908 C-22.64300901 61.9442411 -21.27463218 58.27688632 -19.90405273 54.61035156 C-15.94116459 44.00636481 -12.04406238 33.38613575 -8.30200195 22.70214844 C-6.62349698 17.92944089 -4.88591445 13.18028437 -3.125 8.4375 C-2.09375 5.653125 -1.0625 2.86875 0 0 Z " fill="#E65047" transform="translate(348,60)"/>
<path d="M0 0 C16 0 16 0 19.40625 2.69140625 C20.50268555 4.51782227 20.50268555 4.51782227 21.5 6.5625 C22.36698903 8.04407631 23.23835401 9.52309761 24.11328125 11 C24.56783691 11.80566406 25.02239258 12.61132812 25.49072266 13.44140625 C28.27884461 18.16795399 31.51791063 22.58704892 34.6875 27.0625 C36.06806029 29.0418161 37.44694803 31.02229976 38.82421875 33.00390625 C39.51563965 33.99664551 40.20706055 34.98938477 40.91943359 36.01220703 C44.28143899 40.84020774 47.64058509 45.67019661 51 50.5 C52.33072446 52.41276369 53.66145363 54.3255241 54.9921875 56.23828125 C57.68569781 60.11012008 60.37831487 63.98257805 63.0703125 67.85546875 C63.74964844 68.83257812 64.42898438 69.8096875 65.12890625 70.81640625 C66.38437375 72.62221567 67.63961517 74.42818233 68.89453125 76.234375 C75.57309606 85.83933914 82.29113519 95.41590741 89 105 C89.33 70.35 89.66 35.7 90 0 C95.28 0 100.56 0 106 0 C106 44.22 106 88.44 106 134 C100.72 134 95.44 134 90 134 C86.34621508 130.18735486 84.4783749 127.49494081 82 123 C80.38744778 120.54529848 78.68878285 118.15265801 77 115.75 C76.05433567 114.37222749 75.11040408 112.9932645 74.16796875 111.61328125 C70.57456492 106.37055897 66.94429119 101.15367382 63.3125 95.9375 C62.63743408 94.96772217 61.96236816 93.99794434 61.2668457 92.9987793 C59.17825452 89.99893714 57.08920657 86.99941361 55 84 C52.22862187 80.02121236 49.45769366 76.04211242 46.6875 72.0625 C46.01936279 71.10279297 45.35122559 70.14308594 44.6628418 69.15429688 C40.35717543 62.9648015 36.07723769 56.75840173 31.82373047 50.53295898 C29.62185016 47.32051106 27.38865434 44.13576262 25.10546875 40.98046875 C24.6367334 40.33215088 24.16799805 39.68383301 23.68505859 39.01586914 C22.79270786 37.78654569 21.89611779 36.56028452 20.99462891 35.33764648 C18 31.21804144 18 31.21804144 18 29 C17.34 29 16.68 29 16 29 C16 63.65 16 98.3 16 134 C10.72 134 5.44 134 0 134 C0 89.78 0 45.56 0 0 Z " fill="#E64F46" transform="translate(697,60)"/>
<path d="M0 0 C5.28 0 10.56 0 16 0 C16 19.8 16 39.6 16 60 C39.76 60 63.52 60 88 60 C88 40.2 88 20.4 88 0 C93.28 0 98.56 0 104 0 C104 44.22 104 88.44 104 134 C98.72 134 93.44 134 88 134 C88 114.2 88 94.4 88 74 C64.24 74 40.48 74 16 74 C16 93.8 16 113.6 16 134 C10.72 134 5.44 134 0 134 C0 89.78 0 45.56 0 0 Z " fill="#E64F47" transform="translate(174,60)"/>
<path d="M0 0 C5.28 0 10.56 0 16 0 C16 19.8 16 39.6 16 60 C39.43 60 62.86 60 87 60 C87 40.2 87 20.4 87 0 C92.28 0 97.56 0 103 0 C103 44.22 103 88.44 103 134 C97.72 134 92.44 134 87 134 C87 114.2 87 94.4 87 74 C63.57 74 40.14 74 16 74 C16 93.8 16 113.6 16 134 C10.72 134 5.44 134 0 134 C0 89.78 0 45.56 0 0 Z " fill="#E64F46" transform="translate(436,60)"/>
<path d="M0 0 C0.6084375 0.40347656 1.216875 0.80695313 1.84375 1.22265625 C10.29508819 7.50353713 16.56690793 18.94321945 19 29 C19 30.32 19 31.64 19 33 C13.72 33 8.44 33 3 33 C2.484375 31.535625 1.96875 30.07125 1.4375 28.5625 C-2.14341347 19.69188628 -7.38311418 13.23481883 -16 9 C-22.21338 6.40625259 -27.79713681 5.52658928 -34.5 5.625 C-35.29019531 5.61339844 -36.08039063 5.60179688 -36.89453125 5.58984375 C-47.48246322 5.64183032 -56.23781458 9.61964614 -63.9453125 16.81640625 C-77.15783138 30.97267648 -77.4784487 48.22971958 -77.09326172 66.49267578 C-76.55849477 80.86978712 -71.07090628 92.38416014 -60.75 102.25 C-51.27593366 110.39577664 -40.10327045 111.76352407 -28 111 C-17.59340386 109.2356633 -8.64801069 104.02661294 -2.47265625 95.45703125 C-0.08361563 91.47107223 1.45795356 87.37941189 3 83 C8.28 83 13.56 83 19 83 C16.45099315 96.38228595 10.36776826 108.98484649 -1 117.0625 C-16.06272484 126.59197898 -33.01913679 129.78005486 -50.5 125.875 C-61.155654 122.66939935 -69.19520011 116.79103481 -77 109 C-77.86431641 108.15308594 -77.86431641 108.15308594 -78.74609375 107.2890625 C-93.00270705 92.10669509 -94.98793905 70.26626545 -94.42578125 50.5625 C-94.04093334 42.93925907 -92.77947118 36.14995001 -90 29 C-89.68804687 28.16210938 -89.37609375 27.32421875 -89.0546875 26.4609375 C-88.14294208 24.23137518 -87.12418822 22.12962417 -86 20 C-85.59265625 19.20335938 -85.1853125 18.40671875 -84.765625 17.5859375 C-77.43328744 4.28062834 -65.62140582 -5.00356447 -51.1328125 -9.4921875 C-33.12663772 -13.77937197 -15.12018547 -10.86058098 0 0 Z " fill="#E55047" transform="translate(129,69)"/>
<path d="M0 0 C2.38854666 2.38854666 2.94808286 4.24331438 4.06298828 7.42773438 C4.66338425 9.129599 4.66338425 9.129599 5.27590942 10.86584473 C5.70306244 12.09605347 6.13021545 13.32626221 6.5703125 14.59375 C7.01544418 15.86419977 7.46099639 17.13450227 7.9069519 18.40466309 C8.84016856 21.06654732 9.76946066 23.72975808 10.69580078 26.39404297 C11.88461278 29.8127682 13.08125209 33.22868733 14.28059578 36.64373016 C15.20097766 39.2661975 16.11814379 41.88977991 17.03423691 44.51374817 C17.68882612 46.38768105 18.3453951 48.26092198 19.00198364 50.13415527 C19.3959433 51.26873169 19.78990295 52.40330811 20.19580078 53.57226562 C20.54506622 54.57439087 20.89433167 55.57651611 21.25418091 56.60900879 C22 59 22 59 22 61 C7.48 61 -7.04 61 -22 61 C-20.13731623 54.7910541 -18.26030125 48.71088591 -16.0390625 42.640625 C-15.76661713 41.88892029 -15.49417175 41.13721558 -15.21347046 40.36273193 C-14.35323134 37.99087315 -13.48925782 35.62039701 -12.625 33.25 C-11.77154157 30.90129017 -10.91886575 28.55229747 -10.06634521 26.20324707 C-9.51029665 24.6719817 -8.95354367 23.14097192 -8.39605713 21.61022949 C-7.0837703 18.00406332 -5.78181076 14.39493433 -4.50683594 10.77539062 C-4.27644623 10.12262146 -4.04605652 9.46985229 -3.8086853 8.79730225 C-3.18952183 7.03857464 -2.57388319 5.27860723 -1.95849609 3.51855469 C-1 1 -1 1 0 0 Z " fill="#B1F5A5" transform="translate(618,81)"/>
<path d="M0 0 C0.66 0 1.32 0 2 0 C7.08154794 13.2971074 11.99370953 26.64980762 16.7454834 40.06793213 C17.29058058 41.60716179 17.83672502 43.14602098 18.38391113 44.68450928 C19.15651634 46.85878749 19.92469795 49.03457391 20.69140625 51.2109375 C21.04233086 52.19688904 21.04233086 52.19688904 21.40034485 53.20275879 C23 57.77013357 23 57.77013357 23 60 C8.48 60 -6.04 60 -21 60 C-17.61960483 48.73201611 -17.61960483 48.73201611 -15.984375 44.00390625 C-15.62351807 42.95936279 -15.26266113 41.91481934 -14.89086914 40.83862305 C-14.51438232 39.75750244 -14.13789551 38.67638184 -13.75 37.5625 C-13.3573999 36.43175049 -12.9647998 35.30100098 -12.56030273 34.13598633 C-8.57157171 22.69354152 -4.56606612 11.22766982 0 0 Z " fill="#B1F5A5" transform="translate(356,82)"/>
</svg>
