<svg width="483" height="97" viewBox="0 0 483 97" fill="none" xmlns="http://www.w3.org/2000/svg">
<g clip-path="url(#clip0_672_140)">
<path d="M3.86364 26.0682V19.8182H47.5V26.0682H29.2045V78H22.1591V26.0682H3.86364ZM58.3736 78V19.8182H93.4872V26.0682H65.419V45.7273H91.669V51.9773H65.419V71.75H93.9418V78H58.3736ZM103.004 26.0682V19.8182H146.641V26.0682H128.345V78H121.3V26.0682H103.004ZM189.332 34.3636C188.991 31.4848 187.609 29.25 185.185 27.6591C182.76 26.0682 179.787 25.2727 176.264 25.2727C173.688 25.2727 171.435 25.6894 169.503 26.5227C167.59 27.3561 166.094 28.5019 165.014 29.9602C163.954 31.4186 163.423 33.0758 163.423 34.9318C163.423 36.4848 163.793 37.8201 164.531 38.9375C165.289 40.036 166.255 40.9545 167.429 41.6932C168.603 42.4129 169.834 43.0095 171.122 43.483C172.41 43.9375 173.594 44.3068 174.673 44.5909L180.582 46.1818C182.098 46.5795 183.783 47.1288 185.639 47.8295C187.514 48.5303 189.304 49.4867 191.009 50.6989C192.732 51.892 194.152 53.4261 195.27 55.3011C196.387 57.1761 196.946 59.4773 196.946 62.2045C196.946 65.3485 196.122 68.1894 194.474 70.7273C192.846 73.2652 190.459 75.2822 187.315 76.7784C184.19 78.2746 180.393 79.0227 175.923 79.0227C171.757 79.0227 168.149 78.3504 165.099 77.0057C162.069 75.661 159.683 73.786 157.94 71.3807C156.217 68.9754 155.241 66.1818 155.014 63H162.287C162.476 65.197 163.215 67.0152 164.503 68.4545C165.81 69.875 167.457 70.9356 169.446 71.6364C171.454 72.3182 173.613 72.6591 175.923 72.6591C178.613 72.6591 181.027 72.2235 183.168 71.3523C185.308 70.4621 187.003 69.2311 188.253 67.6591C189.503 66.0682 190.128 64.2121 190.128 62.0909C190.128 60.1591 189.588 58.5871 188.509 57.375C187.429 56.1629 186.009 55.178 184.247 54.4205C182.486 53.6629 180.582 53 178.537 52.4318L171.378 50.3864C166.832 49.0795 163.234 47.214 160.582 44.7898C157.931 42.3655 156.605 39.1932 156.605 35.2727C156.605 32.0151 157.486 29.1742 159.247 26.75C161.027 24.3068 163.414 22.4129 166.406 21.0682C169.418 19.7045 172.779 19.0227 176.491 19.0227C180.241 19.0227 183.575 19.6951 186.491 21.0398C189.408 22.3655 191.719 24.1837 193.423 26.4943C195.147 28.8049 196.056 31.428 196.151 34.3636H189.332ZM246.712 19.8182H253.757V58.3409C253.757 62.3182 252.82 65.8693 250.945 68.9943C249.089 72.1004 246.465 74.553 243.075 76.3523C239.685 78.1326 235.708 79.0227 231.143 79.0227C226.579 79.0227 222.602 78.1326 219.212 76.3523C215.821 74.553 213.189 72.1004 211.314 68.9943C209.458 65.8693 208.53 62.3182 208.53 58.3409V19.8182H215.575V57.7727C215.575 60.6136 216.2 63.142 217.45 65.358C218.7 67.5549 220.481 69.2879 222.791 70.5568C225.121 71.8068 227.905 72.4318 231.143 72.4318C234.382 72.4318 237.166 71.8068 239.496 70.5568C241.825 69.2879 243.606 67.5549 244.837 65.358C246.087 63.142 246.712 60.6136 246.712 57.7727V19.8182ZM313.963 19.8182V78H307.145L275.44 32.3182H274.872V78H267.827V19.8182H274.645L306.463 65.6136H307.031V19.8182H313.963ZM330.447 78H323.061L344.425 19.8182H351.697L373.061 78H365.675L348.288 29.0227H347.834L330.447 78ZM333.175 55.2727H362.947V61.5227H333.175V55.2727ZM382.124 78V19.8182H402.464C406.518 19.8182 409.86 20.5189 412.493 21.9205C415.125 23.303 417.086 25.1686 418.374 27.517C419.661 29.8466 420.305 32.4318 420.305 35.2727C420.305 37.7727 419.86 39.8371 418.97 41.4659C418.099 43.0947 416.944 44.3826 415.504 45.3295C414.084 46.2765 412.54 46.9773 410.874 47.4318V48C412.654 48.1136 414.444 48.7386 416.243 49.875C418.042 51.0114 419.548 52.6402 420.76 54.7614C421.972 56.8826 422.578 59.4773 422.578 62.5455C422.578 65.4621 421.915 68.0852 420.589 70.4148C419.264 72.7443 417.171 74.5909 414.311 75.9545C411.451 77.3182 407.73 78 403.146 78H382.124ZM389.169 71.75H403.146C407.749 71.75 411.016 70.8598 412.947 69.0795C414.898 67.2803 415.874 65.1023 415.874 62.5455C415.874 60.5758 415.372 58.7576 414.368 57.0909C413.364 55.4053 411.934 54.0606 410.078 53.0568C408.222 52.0341 406.025 51.5227 403.487 51.5227H389.169V71.75ZM389.169 45.3864H402.237C404.358 45.3864 406.271 44.9697 407.976 44.1364C409.699 43.303 411.063 42.1288 412.067 40.6136C413.089 39.0985 413.601 37.3182 413.601 35.2727C413.601 32.7159 412.711 30.5473 410.93 28.767C409.15 26.9678 406.328 26.0682 402.464 26.0682H389.169V45.3864ZM434.155 78V19.8182H469.268V26.0682H441.2V45.7273H467.45V51.9773H441.2V71.75H469.723V78H434.155Z" fill="#FB3C3C"/>
</g>
<defs>
<clipPath id="clip0_672_140">
<rect width="483" height="97" fill="white"/>
</clipPath>
</defs>
</svg>
